<mxfile host="65bd71144e">
    <diagram id="wZ029FIufCJpHaYDYHpU" name="Page-1">
        <mxGraphModel dx="855" dy="706" grid="1" gridSize="10" guides="1" tooltips="1" connect="1" arrows="1" fold="1" page="1" pageScale="1" pageWidth="850" pageHeight="1100" background="#ffffff" math="0" shadow="0">
            <root>
                <mxCell id="0"/>
                <mxCell id="1" parent="0"/>
                <mxCell id="2" value="Program" style="swimlane;fontStyle=0;childLayout=stackLayout;horizontal=1;startSize=30;horizontalStack=0;resizeParent=1;resizeParentMax=0;resizeLast=0;collapsible=1;marginBottom=0;whiteSpace=wrap;html=1;fillColor=#a20025;fontColor=#ffffff;strokeColor=#6F0000;" parent="1" vertex="1">
                    <mxGeometry x="450" y="20" width="250" height="90" as="geometry"/>
                </mxCell>
                <mxCell id="3" value="&lt;div&gt;+ DisplayWelcomeMessage() : void&lt;/div&gt;&lt;div&gt;+ DisplayEndMessage() : void&lt;/div&gt;&lt;div&gt;+ ShowMenu() : void&lt;/div&gt;" style="text;strokeColor=none;fillColor=default;align=left;verticalAlign=middle;spacingLeft=4;spacingRight=4;overflow=hidden;points=[[0,0.5],[1,0.5]];portConstraint=eastwest;rotatable=0;whiteSpace=wrap;html=1;" parent="2" vertex="1">
                    <mxGeometry y="30" width="250" height="60" as="geometry"/>
                </mxCell>
                <mxCell id="6" value="EternalGoal" style="swimlane;fontStyle=0;childLayout=stackLayout;horizontal=1;startSize=30;horizontalStack=0;resizeParent=1;resizeParentMax=0;resizeLast=0;collapsible=1;marginBottom=0;whiteSpace=wrap;html=1;fillColor=#0050ef;fontColor=#ffffff;strokeColor=#001DBC;rounded=1;" parent="1" vertex="1">
                    <mxGeometry x="410" y="400" width="310" height="330" as="geometry"/>
                </mxCell>
                <mxCell id="7" value="&lt;div&gt;- _name: string&lt;/div&gt;&lt;div&gt;- _description: string&lt;/div&gt;&lt;div&gt;- _points: int&lt;/div&gt;&lt;div&gt;- _achievement: bool&lt;/div&gt;" style="text;strokeColor=none;fillColor=default;align=left;verticalAlign=middle;spacingLeft=4;spacingRight=4;overflow=hidden;points=[[0,0.5],[1,0.5]];portConstraint=eastwest;rotatable=0;whiteSpace=wrap;html=1;" parent="6" vertex="1">
                    <mxGeometry y="30" width="310" height="70" as="geometry"/>
                </mxCell>
                <mxCell id="8" value="&lt;div&gt;+ GetName() : string&lt;/div&gt;&lt;div&gt;+ SetName(name: string) : void&lt;/div&gt;&lt;div&gt;+ GetDescription() : string&lt;/div&gt;&lt;div&gt;+ SetDescription(description: string) : void&lt;/div&gt;&lt;div&gt;+ GetPoints() : int&lt;/div&gt;&lt;div&gt;+ SetPoints(points: int) : void&lt;/div&gt;&lt;div&gt;&lt;br&gt;&lt;/div&gt;&lt;div&gt;+ GetAchievement() : bool&lt;/div&gt;&lt;div&gt;+ SetAchievement(achievement: bool) : void&lt;/div&gt;&lt;div&gt;+ completionEvent() : int&lt;/div&gt;&lt;div&gt;&lt;br&gt;&lt;/div&gt;&lt;div&gt;&lt;br&gt;&lt;/div&gt;&lt;div&gt;&lt;br&gt;&lt;/div&gt;" style="text;strokeColor=#001DBC;fillColor=#0050ef;align=left;verticalAlign=middle;spacingLeft=4;spacingRight=4;overflow=hidden;points=[[0,0.5],[1,0.5]];portConstraint=eastwest;rotatable=0;whiteSpace=wrap;html=1;fontColor=#ffffff;glass=0;shadow=0;" parent="6" vertex="1">
                    <mxGeometry y="100" width="310" height="160" as="geometry"/>
                </mxCell>
                <mxCell id="28" value="&lt;p class=&quot;MsoNormal&quot;&gt;#EternalGoal()&lt;/p&gt;&lt;span style=&quot;background-color: initial;&quot;&gt;#EternalGoal(string name, string description, int points)&lt;br&gt;&lt;/span&gt;" style="text;strokeColor=none;fillColor=default;align=left;verticalAlign=middle;spacingLeft=4;spacingRight=4;overflow=hidden;points=[[0,0.5],[1,0.5]];portConstraint=eastwest;rotatable=0;whiteSpace=wrap;html=1;rounded=1;shadow=0;" parent="6" vertex="1">
                    <mxGeometry y="260" width="310" height="70" as="geometry"/>
                </mxCell>
                <mxCell id="10" value="CheckListGoal" style="swimlane;fontStyle=0;childLayout=stackLayout;horizontal=1;startSize=30;horizontalStack=0;resizeParent=1;resizeParentMax=0;resizeLast=0;collapsible=1;marginBottom=0;whiteSpace=wrap;html=1;fillColor=#0050ef;fontColor=#ffffff;strokeColor=#001DBC;rounded=1;" parent="1" vertex="1">
                    <mxGeometry x="792" y="400" width="340" height="400" as="geometry"/>
                </mxCell>
                <mxCell id="11" value="&lt;div&gt;- _achievementCount: int&lt;/div&gt;&lt;div&gt;- _achievementGoal: int&lt;/div&gt;&lt;div&gt;- _bonus: int&lt;/div&gt;&lt;div&gt;&lt;br&gt;&lt;/div&gt;" style="text;strokeColor=none;fillColor=default;align=left;verticalAlign=middle;spacingLeft=4;spacingRight=4;overflow=hidden;points=[[0,0.5],[1,0.5]];portConstraint=eastwest;rotatable=0;whiteSpace=wrap;html=1;" parent="10" vertex="1">
                    <mxGeometry y="30" width="340" height="60" as="geometry"/>
                </mxCell>
                <mxCell id="12" value="&lt;div&gt;+ GetAchievementCount() : int&lt;/div&gt;&lt;div&gt;+ SetAchievementCount(achievementCount: int) : void&lt;/div&gt;&lt;div&gt;+ GetAchievementGoal() : int&lt;/div&gt;&lt;div&gt;+ SetAchievementGoal(achievementGoal: int) : void&lt;/div&gt;&lt;div&gt;+ GetBonus() : int&lt;/div&gt;&lt;div&gt;+ SetBonus(bonus: int) : void&lt;/div&gt;&lt;div&gt;&lt;br&gt;&lt;/div&gt;&lt;div&gt;+ IncrementAchievementCount() : void&lt;/div&gt;&lt;div&gt;+ completionEvent() : int&lt;/div&gt;&lt;div&gt;&lt;br&gt;&lt;/div&gt;&lt;div&gt;+ Display() : string&lt;/div&gt;&lt;div&gt;+ Stringify() : string&lt;/div&gt;" style="text;strokeColor=#001DBC;fillColor=#0050ef;align=left;verticalAlign=middle;spacingLeft=4;spacingRight=4;overflow=hidden;points=[[0,0.5],[1,0.5]];portConstraint=eastwest;rotatable=0;whiteSpace=wrap;html=1;fontColor=#ffffff;" parent="10" vertex="1">
                    <mxGeometry y="90" width="340" height="180" as="geometry"/>
                </mxCell>
                <mxCell id="27" value="&lt;p class=&quot;MsoNormal&quot;&gt;&lt;/p&gt;&lt;span style=&quot;background-color: initial;&quot;&gt;#CheckListGoal()&lt;br&gt;&lt;br&gt;#CheckListGoal(string name, string description, int points,&amp;nbsp;&lt;/span&gt;&lt;span style=&quot;background-color: initial;&quot;&gt;int achievementGoal, int bonus)&lt;br&gt;&lt;/span&gt;&lt;span style=&quot;background-color: initial;&quot;&gt;&lt;br&gt;&lt;/span&gt;&lt;span style=&quot;background-color: initial;&quot;&gt;#CheckListGoal(string name, string description, int points,&amp;nbsp;&lt;/span&gt;&lt;span style=&quot;background-color: initial;&quot;&gt;int achievementCount, int achievementGoal, int bonus)&lt;/span&gt;&lt;span style=&quot;background-color: initial;&quot;&gt;&lt;br&gt;&lt;/span&gt;" style="text;strokeColor=none;fillColor=default;align=left;verticalAlign=middle;spacingLeft=4;spacingRight=4;overflow=hidden;points=[[0,0.5],[1,0.5]];portConstraint=eastwest;rotatable=0;whiteSpace=wrap;html=1;rounded=1;" parent="10" vertex="1">
                    <mxGeometry y="270" width="340" height="130" as="geometry"/>
                </mxCell>
                <mxCell id="14" value="Goal" style="swimlane;fontStyle=0;childLayout=stackLayout;horizontal=1;startSize=30;horizontalStack=0;resizeParent=1;resizeParentMax=0;resizeLast=0;collapsible=1;marginBottom=0;whiteSpace=wrap;html=1;fillColor=#0050ef;fontColor=#ffffff;strokeColor=#001DBC;rounded=1;" parent="1" vertex="1">
                    <mxGeometry x="60" y="400" width="280" height="420" as="geometry"/>
                </mxCell>
                <mxCell id="15" value="&lt;div&gt;- _name: string&lt;/div&gt;&lt;div&gt;- _description: string&lt;/div&gt;&lt;div&gt;- _points: int&lt;/div&gt;&lt;div&gt;- _achievement: bool&lt;/div&gt;" style="text;strokeColor=none;fillColor=default;align=left;verticalAlign=middle;spacingLeft=4;spacingRight=4;overflow=hidden;points=[[0,0.5],[1,0.5]];portConstraint=eastwest;rotatable=0;whiteSpace=wrap;html=1;" parent="14" vertex="1">
                    <mxGeometry y="30" width="280" height="70" as="geometry"/>
                </mxCell>
                <mxCell id="16" value="&lt;div&gt;+ GetName() : string&amp;nbsp; &amp;nbsp; &amp;nbsp; &amp;nbsp;&amp;nbsp;&lt;/div&gt;&lt;div&gt;+ SetName(name: string) : void&amp;nbsp;&amp;nbsp;&lt;/div&gt;&lt;div&gt;+ GetDescription() : string&amp;nbsp; &amp;nbsp;&lt;/div&gt;&lt;div&gt;+ SetDescription(description: string) : void&lt;/div&gt;&lt;div&gt;+ GetPoints() : int&amp;nbsp;&lt;/div&gt;&lt;div&gt;+ SetPoints(points: int) : void&lt;/div&gt;&lt;div&gt;&lt;br&gt;&lt;/div&gt;&lt;div&gt;+ GetAchievement() : bool&lt;/div&gt;&lt;div&gt;+ SetAchievement(achievement: bool) : void&lt;/div&gt;&lt;div&gt;+ completionEvent() : int&lt;/div&gt;&lt;div&gt;&lt;br&gt;&lt;/div&gt;&lt;div&gt;+ Display() : string&lt;/div&gt;&lt;div&gt;+ Stringify() : string&lt;/div&gt;" style="text;strokeColor=#001DBC;fillColor=#0050ef;align=left;verticalAlign=middle;spacingLeft=4;spacingRight=4;overflow=hidden;points=[[0,0.5],[1,0.5]];portConstraint=eastwest;rotatable=0;whiteSpace=wrap;html=1;fontColor=#ffffff;" parent="14" vertex="1">
                    <mxGeometry y="100" width="280" height="200" as="geometry"/>
                </mxCell>
                <mxCell id="29" value="&lt;p class=&quot;MsoNormal&quot;&gt;&lt;/p&gt;&lt;span style=&quot;background-color: initial;&quot;&gt;#Goal()&lt;br&gt;&lt;br&gt;#Goal(string name, string description, int points)&lt;br&gt;&lt;/span&gt;&lt;br&gt;&lt;span style=&quot;background-color: initial;&quot;&gt;#Goal(string name, string description, int points, bool&amp;nbsp;&lt;/span&gt;&lt;span style=&quot;background-color: initial;&quot;&gt;achievement)&lt;/span&gt;&lt;span style=&quot;background-color: initial;&quot;&gt;&lt;br&gt;&lt;/span&gt;" style="text;strokeColor=none;fillColor=default;align=left;verticalAlign=middle;spacingLeft=4;spacingRight=4;overflow=hidden;points=[[0,0.5],[1,0.5]];portConstraint=eastwest;rotatable=0;whiteSpace=wrap;html=1;rounded=1;" parent="14" vertex="1">
                    <mxGeometry y="300" width="280" height="120" as="geometry"/>
                </mxCell>
                <mxCell id="18" value="Game" style="swimlane;fontStyle=0;childLayout=stackLayout;horizontal=1;startSize=30;horizontalStack=0;resizeParent=1;resizeParentMax=0;resizeLast=0;collapsible=1;marginBottom=0;whiteSpace=wrap;html=1;fillColor=#60a917;fontColor=#ffffff;strokeColor=#2D7600;" parent="1" vertex="1">
                    <mxGeometry x="450" y="140" width="250" height="220" as="geometry"/>
                </mxCell>
                <mxCell id="19" value="&lt;div&gt;- _goals: List&amp;lt;Goal&amp;gt;&lt;/div&gt;&lt;div&gt;- _points: int&lt;/div&gt;" style="text;strokeColor=#2D7600;fillColor=#60a917;align=left;verticalAlign=middle;spacingLeft=4;spacingRight=4;overflow=hidden;points=[[0,0.5],[1,0.5]];portConstraint=eastwest;rotatable=0;whiteSpace=wrap;html=1;fontColor=#ffffff;" parent="18" vertex="1">
                    <mxGeometry y="30" width="250" height="40" as="geometry"/>
                </mxCell>
                <mxCell id="20" value="&lt;div&gt;&lt;div&gt;+ Create() : void&lt;br&gt;&lt;/div&gt;&lt;div&gt;+ View() : void&lt;/div&gt;&lt;div&gt;+ Progress() : void&lt;/div&gt;&lt;div&gt;+ Save() : void&lt;/div&gt;&lt;div&gt;+ Load() : void&lt;/div&gt;&lt;/div&gt;&lt;div&gt;&lt;br&gt;&lt;/div&gt;&lt;div&gt;+ getPoints() : int&lt;/div&gt;&lt;div&gt;+ AddPoints(points: int, bonus: int) : void&lt;/div&gt;&lt;div&gt;&lt;span style=&quot;background-color: initial;&quot;&gt;+ AddGoal(goal: Goal) : void&lt;/span&gt;&lt;/div&gt;" style="text;strokeColor=none;fillColor=default;align=left;verticalAlign=middle;spacingLeft=4;spacingRight=4;overflow=hidden;points=[[0,0.5],[1,0.5]];portConstraint=eastwest;rotatable=0;whiteSpace=wrap;html=1;" parent="18" vertex="1">
                    <mxGeometry y="70" width="250" height="150" as="geometry"/>
                </mxCell>
                <mxCell id="22" value="&lt;font style=&quot;font-size: 11px;&quot;&gt;The `Goal` class provides a basic structure for all goals, while the subclasses (Eternal &amp;amp; CheckList) add additional attributes and methods.&lt;/font&gt;" style="text;html=1;strokeColor=none;fillColor=default;align=left;verticalAlign=middle;whiteSpace=wrap;rounded=1;" parent="1" vertex="1">
                    <mxGeometry x="60" y="830" width="310" height="60" as="geometry"/>
                </mxCell>
                <mxCell id="25" value="&lt;ul style=&quot;&quot;&gt;&lt;li&gt;&lt;span style=&quot;background-color: initial;&quot;&gt;The `EternalGoal` class is a subclass of `Goal` and represents a goal that is always incomplete.&lt;/span&gt;&lt;/li&gt;&lt;li&gt;&lt;span style=&quot;background-color: initial;&quot;&gt;It has two constructors and overrides the `GetAchievement()` and `SetAchievement()` methods of the `Goal` class to always return false and ignore any input.&lt;/span&gt;&lt;/li&gt;&lt;li&gt;&lt;span style=&quot;background-color: initial;&quot;&gt;The `completionEvent()` method sets `_achievement` to false and returns `_points`.&lt;/span&gt;&lt;/li&gt;&lt;/ul&gt;" style="text;html=1;strokeColor=none;fillColor=default;align=left;verticalAlign=middle;whiteSpace=wrap;rounded=1;fontSize=11;" parent="1" vertex="1">
                    <mxGeometry x="410" y="740" width="370" height="130" as="geometry"/>
                </mxCell>
                <mxCell id="26" value="&lt;p class=&quot;MsoNormal&quot;&gt;&lt;/p&gt;&lt;ul&gt;&lt;li&gt;The `CheckListGoal` class is a subclass of `Goal`.&amp;nbsp;&lt;span style=&quot;background-color: initial;&quot;&gt;It has three additional attributes: `_achievementCount`, `_achievementGoal`, and `_bonus`.&lt;/span&gt;&lt;/li&gt;&lt;li&gt;&lt;span style=&quot;background-color: initial;&quot;&gt;This class has three constructors and several methods to&amp;nbsp;&lt;/span&gt;&lt;span style=&quot;background-color: initial;&quot;&gt;manipulate and retrieve the values of its attributes.&lt;/span&gt;&lt;/li&gt;&lt;li&gt;&lt;span style=&quot;background-color: initial;&quot;&gt;The `completionEvent()` method increments the&amp;nbsp;&lt;/span&gt;&lt;span style=&quot;background-color: initial;&quot;&gt;`_achievementCount` attribute until it reaches the `_achievementGoal`. Once the&amp;nbsp;&lt;/span&gt;&lt;span style=&quot;background-color: initial;&quot;&gt;goal is achieved, it returns the `_points` attribute plus the `_bonus`&amp;nbsp;&lt;/span&gt;&lt;span style=&quot;background-color: initial;&quot;&gt;attribute.&lt;/span&gt;&lt;/li&gt;&lt;li&gt;The `Display()` method returns a string representation of the goal's attributes.&lt;/li&gt;&lt;li&gt;The `Stringify()` method returns a formatted string of all the goal's attributes, which is used to save the goal to a file.&lt;/li&gt;&lt;/ul&gt;&lt;p&gt;&lt;/p&gt;" style="text;html=1;strokeColor=none;fillColor=default;align=left;verticalAlign=middle;whiteSpace=wrap;rounded=1;fontSize=11;" parent="1" vertex="1">
                    <mxGeometry x="792" y="810" width="580" height="160" as="geometry"/>
                </mxCell>
            </root>
        </mxGraphModel>
    </diagram>
</mxfile>